# File created by Blade
# Date/Time:  Tue Jan 27 19:54:25 2015
# Frame Rate: 120.000 fps
#------------------------------------------------------
:FULLY-SPECIFIED
:DEGREES
2752
root 7.216506 33.868436 0.168688 9.073180 -16.649941 -27.983450
Spine 2.547482 9.857371 21.554085
Head 3.285737 -5.830044 10.354333
LeftShoulder -14.217658 -1.251501 30.560084
LeftArm 0.495847 -6.023999 -83.839651
LeftForeArm -49.374560 -0.000000 131.732800
LeftHand 5.267592 -0.000000 -36.993084
LeftHandThumb1 -26.253704 0.000000 33.147579
RightShoulder -18.414728 -19.030379 -20.474404
RightArm 3.229871 -6.480840 76.277807
RightForeArm -21.333453 -0.000000 17.408422
RightHand 17.149513 0.000000 9.431205
RightHandThumb1 -24.326973 -0.000000 -32.862282
LeftUpLeg 5.878345 14.695007 16.235623
LeftLeg -3.080892 -0.000000 0.000000
LeftFoot -20.177298 19.981374 -16.776488
LeftToeBase 21.486188 -0.000000 -0.000000
RightUpLeg -61.116148 -34.218492 -16.606164
RightLeg 121.456444 -0.000000 -0.000000
RightFoot 33.949065 -17.079154 15.424409
RightToeBase 11.062597 -0.000000 -0.000000
2753
root 7.216526 33.864471 0.166535 9.100720 -16.744330 -27.949615
Spine 2.582301 9.949180 21.509883
Head 3.289485 -5.751563 10.271518
LeftShoulder -14.221409 -1.260711 30.563600
LeftArm 0.500967 -5.999441 -83.797582
LeftForeArm -49.372740 -0.000000 131.745002
LeftHand 5.309379 -0.000000 -36.965159
LeftHandThumb1 -26.253704 0.000000 33.147579
RightShoulder -18.424521 -19.088145 -20.474453
RightArm 3.259743 -6.521906 76.308959
RightForeArm -21.304396 -0.000000 17.385650
RightHand 17.161510 -0.000000 9.445226
RightHandThumb1 -24.326973 -0.000000 -32.862282
LeftUpLeg 5.872267 14.704602 16.180479
LeftLeg -3.071181 -0.000000 0.000000
LeftFoot -20.232399 20.029855 -16.849957
LeftToeBase 21.525016 -0.000000 -0.000000
RightUpLeg -61.237064 -34.308121 -16.343507
RightLeg 121.381361 -0.000000 -0.000000
RightFoot 33.895572 -17.216866 15.493628
RightToeBase 10.965719 -0.000000 -0.000000
2754
root 7.215771 33.860456 0.162043 9.130517 -16.829820 -27.924496
Spine 2.623316 10.023733 21.468853
Head 3.294856 -5.642303 10.211372
LeftShoulder -14.229799 -1.267730 30.570552
LeftArm 0.524876 -5.984321 -83.754927
LeftForeArm -49.407588 -0.000000 131.756929
LeftHand 5.330668 0.000000 -36.970695
LeftHandThumb1 -26.253704 0.000000 33.147579
RightShoulder -18.411602 -19.090201 -20.483224
RightArm 3.247192 -6.538713 76.334947
RightForeArm -21.274743 -0.000000 17.360486
RightHand 17.220793 -0.000000 9.487123
RightHandThumb1 -24.326973 -0.000000 -32.862282
LeftUpLeg 5.859172 14.714380 16.132789
LeftLeg -3.065231 -0.000000 0.000000
LeftFoot -20.265109 20.134066 -16.818843
LeftToeBase 21.514341 -0.000000 -0.000000
RightUpLeg -61.374974 -34.408666 -16.070370
RightLeg 121.319532 -0.000000 -0.000000
RightFoot 33.776044 -17.409467 15.792923
RightToeBase 11.302886 -0.000000 -0.000000
2755
root 7.215151 33.855717 0.156975 9.144556 -16.907758 -27.886495
Spine 2.679386 10.063309 21.416424
Head 3.297976 -5.506617 10.151773
LeftShoulder -14.258493 -1.260551 30.570555
LeftArm 0.565946 -5.920942 -83.700261
LeftForeArm -49.098949 -0.000000 131.811793
LeftHand 5.473285 -0.000000 -36.678470
LeftHandThumb1 -26.253704 0.000000 33.147579
RightShoulder -18.367314 -19.060593 -20.519131
RightArm 3.206886 -6.571037 76.380889
RightForeArm -21.244928 -0.000000 17.363823
RightHand 17.182961 0.000000 9.408490
RightHandThumb1 -24.326973 -0.000000 -32.862282
LeftUpLeg 5.834673 14.658035 16.060387
LeftLeg -3.018726 -0.000000 0.000000
LeftFoot -20.299360 20.368364 -16.731336
LeftToeBase 21.140807 -0.000000 -0.000000
RightUpLeg -61.495413 -34.513578 -15.821771
RightLeg 121.282195 -0.000000 -0.000000
RightFoot 33.766202 -17.431804 15.890192
RightToeBase 11.169484 -0.000000 -0.000000
2756
root 7.215758 33.850618 0.153698 9.164482 -16.993666 -27.849035
Spine 2.721309 10.128714 21.369104
Head 3.323894 -5.406611 10.080913
LeftShoulder -14.275483 -1.247064 30.566870
LeftArm 0.625723 -5.883049 -83.639120
LeftForeArm -49.063988 -0.000000 131.821729
LeftHand 5.492573 -0.000000 -36.629783
LeftHandThumb1 -26.253704 0.000000 33.147579
RightShoulder -18.353966 -19.057477 -20.537878
RightArm 3.208226 -6.621046 76.395780
RightForeArm -21.220364 -0.000000 17.347301
RightHand 17.214688 -0.000000 9.392888
RightHandThumb1 -24.326973 -0.000000 -32.862282
LeftUpLeg 5.825836 14.656196 15.999497
LeftLeg -3.007022 -0.000000 0.000000
LeftFoot -20.338555 20.463896 -16.732043
LeftToeBase 21.082648 -0.000000 -0.000000
RightUpLeg -61.618299 -34.624613 -15.582068
RightLeg 121.242041 -0.000000 -0.000000
RightFoot 33.714942 -17.453751 16.062618
RightToeBase 11.464304 -0.000000 -0.000000
2757
root 7.217425 33.843899 0.151351 9.154907 -17.070016 -27.775730
Spine 2.775157 10.163849 21.293095
Head 3.355523 -5.316123 10.004932
LeftShoulder -14.283747 -1.232079 30.563470
LeftArm 0.693801 -5.866631 -83.565545
LeftForeArm -49.132248 -0.000000 131.799570
LeftHand 5.488406 -0.000000 -36.715121
LeftHandThumb1 -26.253704 0.000000 33.147579
RightShoulder -18.315479 -19.044477 -20.572231
RightArm 3.197731 -6.641803 76.422272
RightForeArm -21.252947 0.000000 17.351065
RightHand 17.205019 -0.000000 9.420419
RightHandThumb1 -24.326973 -0.000000 -32.862282
LeftUpLeg 5.841225 14.622421 15.911476
LeftLeg -3.013551 -0.000000 0.000000
LeftFoot -20.360382 20.512692 -16.762405
LeftToeBase 21.086450 -0.000000 -0.000000
RightUpLeg -61.731784 -34.766635 -15.380821
RightLeg 121.217876 -0.000000 -0.000000
RightFoot 33.826535 -17.368425 15.993167
RightToeBase 10.990743 -0.000000 -0.000000
2758
root 7.220392 33.836052 0.147245 9.154629 -17.139303 -27.684926
Spine 2.809569 10.193571 21.188209
Head 3.382511 -5.249594 9.955308
LeftShoulder -14.294619 -1.247681 30.575700
LeftArm 0.736832 -5.835523 -83.500734
LeftForeArm -49.073493 -0.000000 131.801836
LeftHand 5.448875 -0.000000 -36.578378
LeftHandThumb1 -26.253704 0.000000 33.147579
RightShoulder -18.277605 -19.030869 -20.596203
RightArm 3.205954 -6.714915 76.432878
RightForeArm -21.252140 0.000000 17.342541
RightHand 17.189344 0.000000 9.428049
RightHandThumb1 -24.326973 -0.000000 -32.862282
LeftUpLeg 5.821450 14.554489 15.791171
LeftLeg -3.003001 -0.000000 0.000000
LeftFoot -20.399231 20.624955 -16.791108
LeftToeBase 21.069649 -0.000000 -0.000000
RightUpLeg -61.867684 -34.908062 -15.198179
RightLeg 121.215926 -0.000000 -0.000000
RightFoot 33.804312 -17.434430 16.120753
RightToeBase 11.446511 -0.000000 -0.000000
2759
root 7.221506 33.829313 0.144039 9.162371 -17.199098 -27.632978
Spine 2.839525 10.215644 21.135335
Head 3.441712 -5.174592 9.877679
LeftShoulder -14.293738 -1.262959 30.583711
LeftArm 0.760126 -5.819474 -83.452610
LeftForeArm -49.023135 -0.000000 131.797999
LeftHand 5.498968 -0.000000 -36.514378
LeftHandThumb1 -26.253704 0.000000 33.147579
RightShoulder -18.244803 -19.056173 -20.621109
RightArm 3.254505 -6.755708 76.433299
RightForeArm -21.298833 -0.000000 17.342330
RightHand 17.186187 -0.000000 9.495799
RightHandThumb1 -24.326973 -0.000000 -32.862282
LeftUpLeg 5.801119 14.505240 15.705005
LeftLeg -2.988676 -0.000000 0.000000
LeftFoot -20.419594 20.816693 -16.705412
LeftToeBase 20.943851 -0.000000 -0.000000
RightUpLeg -61.982203 -35.062487 -14.963817
RightLeg 121.185025 -0.000000 -0.000000
RightFoot 33.891691 -17.510737 16.102610
RightToeBase 10.784774 -0.000000 -0.000000
